<?xml version="1.0" encoding="UTF-8" standalone="no"?>
<!DOCTYPE svg PUBLIC "-//W3C//DTD SVG 1.1//EN" "http://www.w3.org/Graphics/SVG/1.1/DTD/svg11.dtd">
<!-- Created with Vectornator (http://vectornator.io/) -->
<svg height="100%" stroke-miterlimit="10" style="fill-rule:nonzero;clip-rule:evenodd;stroke-linecap:round;stroke-linejoin:round;" version="1.1" viewBox="0 0 1420 4370" width="100%" xml:space="preserve" xmlns="http://www.w3.org/2000/svg" xmlns:vectornator="http://vectornator.io" xmlns:xlink="http://www.w3.org/1999/xlink">
<defs>
<linearGradient gradientTransform="matrix(0.899115 0 0 0.899115 47.6912 0)" gradientUnits="userSpaceOnUse" id="LinearGradient" x1="532.44" x2="-43.5851" y1="2675.6" y2="2427.52">
<stop offset="2.54313e-07" stop-color="#1a1c4b"/>
<stop offset="1" stop-color="#0897ab"/>
</linearGradient>
<linearGradient gradientTransform="matrix(0.899115 0 0 0.899115 47.6912 0)" gradientUnits="userSpaceOnUse" id="LinearGradient_2" x1="122.995" x2="717.631" y1="1212.71" y2="1438.69">
<stop offset="2.54313e-07" stop-color="#1a1c4b"/>
<stop offset="1" stop-color="#0897ab"/>
</linearGradient>
<linearGradient gradientTransform="matrix(0.899115 0 0 0.899115 47.6912 0)" gradientUnits="userSpaceOnUse" id="LinearGradient_3" x1="765.995" x2="1360.63" y1="438.71" y2="664.69">
<stop offset="2.54313e-07" stop-color="#1a1c4b"/>
<stop offset="1" stop-color="#0897ab"/>
</linearGradient>
<linearGradient gradientTransform="matrix(0.899115 0 0 0.899115 102.049 -3.89439)" gradientUnits="userSpaceOnUse" id="LinearGradient_4" x1="-11.0049" x2="583.631" y1="4469.71" y2="4695.69">
<stop offset="2.54313e-07" stop-color="#1a1c4b"/>
<stop offset="1" stop-color="#0897ab"/>
</linearGradient>
<linearGradient gradientTransform="matrix(0.899115 0 0 0.899115 47.6912 0)" gradientUnits="userSpaceOnUse" id="LinearGradient_5" x1="621.469" x2="710.591" y1="1589.92" y2="1683.82">
<stop offset="2.54313e-07" stop-color="#1a1c4b"/>
<stop offset="1" stop-color="#0897ab"/>
</linearGradient>
<linearGradient gradientTransform="matrix(0.899115 0 0 0.899115 47.6912 0)" gradientUnits="userSpaceOnUse" id="LinearGradient_6" x1="641.237" x2="756.533" y1="3290.55" y2="3336.77">
<stop offset="2.54313e-07" stop-color="#1a1c4b"/>
<stop offset="1" stop-color="#0897ab"/>
</linearGradient>
<linearGradient gradientTransform="matrix(0.899115 0 0 0.899115 47.6912 0)" gradientUnits="userSpaceOnUse" id="LinearGradient_7" x1="1290.42" x2="1332.19" y1="16.8245" y2="33.6267">
<stop offset="2.54313e-07" stop-color="#1a1c4b"/>
<stop offset="1" stop-color="#0897ab"/>
</linearGradient>
<linearGradient gradientTransform="matrix(0.899115 0 0 0.899115 47.6912 0)" gradientUnits="userSpaceOnUse" id="LinearGradient_8" x1="690.271" x2="706.305" y1="107.592" y2="113.862">
<stop offset="2.54313e-07" stop-color="#1a1c4b"/>
<stop offset="1" stop-color="#0897ab"/>
</linearGradient>
</defs>
<clipPath id="ArtboardFrame">
<rect height="4370" width="1420" x="0" y="0"/>
</clipPath>
<g clip-path="url(#ArtboardFrame)" id="Untitled" vectornator:layerName="Untitled">
<path d="M531.891 2278.55C508.971 2300.75 474.241 2318.59 454.296 2339.77C436.758 2358.55 426.096 2380.51 415.182 2402.13C412.229 2408.06 409.493 2413.96 406.757 2419.87C382.164 2473.39 358.162 2530.88 304.555 2567.24C256.914 2599.41 190.084 2609.31 133.195 2594.23C76.3056 2579.13 30.7959 2540.38 11.0637 2493.55C-4.46082 2456.55-4.0546 2414.03 14.8694 2377.26C33.994 2340.29 72.139 2309.74 117.946 2297.8C171.242 2283.87 233.995 2293.68 277.995 2264.76C306.486 2245.87 316.958 2217.19 338.455 2193.85C351.383 2179.7 367.992 2167.39 387.784 2160.98C431.215 2147.07 495.794 2159.98 529.032 2184.76C543.642 2195.6 553.04 2211.68 554.379 2228.32C556.457 2248.18 546.557 2264.23 531.891 2278.55Z" fill="url(#LinearGradient)" fill-rule="nonzero" opacity="1" stroke="none"/>
<path d="M1397.67 3292.75C1374.75 3314.95 1340.02 3332.79 1320.07 3353.97C1302.54 3372.75 1291.88 3394.71 1280.96 3416.33C1278 3422.26 1275.27 3428.17 1272.54 3434.07C1247.95 3487.6 1223.94 3545.08 1170.34 3581.45C1122.69 3613.62 1055.86 3623.52 998.973 3608.43C942.086 3593.33 896.577 3554.57 876.845 3507.76C861.32 3470.74 861.726 3428.23 880.65 3391.46C899.775 3354.49 937.92 3323.94 983.724 3312C1037.02 3298.07 1099.77 3307.87 1143.78 3278.97C1172.27 3260.08 1182.73 3231.39 1204.23 3208.05C1217.16 3193.89 1233.77 3181.58 1253.57 3175.17C1296.99 3161.27 1361.58 3174.18 1394.81 3198.96C1409.42 3209.81 1418.82 3225.88 1420.16 3242.53C1422.24 3262.38 1412.34 3278.44 1397.67 3292.75Z" fill="#0897ab" fill-rule="nonzero" opacity="1" stroke="none"/>
<path d="M1371.25 2029.21C1339.23 2038.54 1312.88 2002.87 1287.55 1990.3C1260.39 1976.92 1236.07 1970.44 1212.76 1970.23C1166.55 1970.03 1134.33 2006.52 1107.57 2039.55C1077.77 2076.24 1045.55 2109.48 994.469 2110.69C983.329 2110.9 967.72 2108.87 957.587 2097.52C939.749 2077.66 946.843 2049.89 952.318 2026.98C968.934 1955.85 983.733 1844.78 896.578 1813.16C883.201 1808.29 869.419 1803.23 860.906 1792.28C819.154 1738.17 874.081 1698.44 922.116 1681.21C970.148 1663.98 1024.07 1653.45 1068.45 1625.28C1115.68 1595.27 1136.35 1533.05 1191.28 1513.8C1207.08 1508.33 1222.29 1509.75 1233.03 1517.65C1246.61 1527.58 1253.09 1545.21 1256.74 1557.38C1272.95 1611.29 1228.77 1664.6 1248.23 1718.1C1260.8 1752.76 1293.42 1776.47 1323.63 1795.33C1373.69 1826.33 1412.6 1860.18 1413.62 1924.03C1414.02 1955.64 1406.12 1986.86 1390.92 2012.19C1386.05 2020.29 1380.78 2025.56 1374.5 2028C1373.48 2028.4 1372.27 2028.81 1371.25 2029.21Z" fill="#1a1c4b" fill-rule="nonzero" opacity="0.56" stroke="none"/>
<path d="M169.185 1035.93C168.374 1001.48 169.793 965.2 182.764 932.572C194.723 902.775 224.517 867.711 259.378 865.887C281.875 864.67 293.023 892.438 306.399 905.814C391.728 991.958 523.471 936.015 621.366 989.522C638.593 998.845 653.997 1013.84 659.064 1033.3C664.333 1053.57 657.443 1075.05 647.916 1093.7C625.419 1137.48 590.355 1170.11 554.684 1202.94C523.268 1231.73 468.949 1261.72 465.302 1309.35C463.883 1328.61 478.678 1345.02 482.732 1363.06C493.068 1410.29 441.993 1440.9 401.659 1444.54C354.84 1448.8 305.183 1429.94 273.363 1394.28C231.813 1347.66 219.449 1245.3 144.661 1237.4C137.364 1236.59 129.257 1236.99 123.379 1232.74C114.866 1226.65 114.258 1213.48 118.92 1204.16C125.811 1189.97 137.972 1179.84 146.687 1166.87C171.617 1128.97 170.198 1082.15 169.185 1035.93Z" fill="url(#LinearGradient_2)" fill-rule="nonzero" opacity="1" stroke="none"/>
<path d="M747.316 340.02C746.505 305.565 747.924 269.285 760.896 236.653C772.854 206.86 802.648 171.796 837.509 169.971C860.006 168.755 871.154 196.522 884.53 209.899C969.86 296.039 1101.6 240.099 1199.49 293.607C1216.72 302.93 1232.13 317.928 1237.19 337.386C1242.46 357.654 1235.58 379.138 1226.04 397.785C1203.55 441.564 1168.48 474.195 1132.82 507.029C1101.4 535.81 1047.09 565.807 1043.43 613.437C1042.01 632.691 1056.81 649.108 1060.86 667.147C1071.2 714.372 1020.12 744.977 979.786 748.625C932.971 752.881 883.315 734.032 851.494 698.36C809.944 651.744 797.581 549.39 722.792 541.485C715.495 540.674 707.388 541.08 701.51 536.823C692.997 530.743 692.389 517.569 697.051 508.246C703.942 494.058 716.104 483.924 724.819 470.952C749.748 433.051 748.33 386.232 747.316 340.02Z" fill="url(#LinearGradient_3)" fill-rule="nonzero" opacity="1" stroke="none"/>
<path d="M103.061 3960.46C102.25 3926 103.669 3889.73 116.64 3857.1C128.599 3827.3 158.393 3792.23 193.254 3790.41C215.751 3789.2 226.899 3816.96 240.275 3830.34C325.604 3916.48 457.347 3860.54 555.242 3914.05C572.47 3923.37 587.873 3938.37 592.94 3957.82C598.209 3978.09 591.319 3999.58 581.792 4018.23C559.295 4062 524.231 4094.63 488.56 4127.47C457.144 4156.25 402.825 4186.24 399.178 4233.88C397.759 4253.13 412.554 4269.55 416.608 4287.58C426.944 4334.81 375.869 4365.42 335.536 4369.06C288.716 4373.32 239.06 4354.47 207.239 4318.8C165.689 4272.18 153.326 4169.83 78.5364 4161.92C71.2399 4161.11 63.1327 4161.52 57.255 4157.27C48.7424 4151.18 48.1343 4138.01 52.796 4128.68C59.6872 4114.5 71.848 4104.36 80.5633 4091.4C105.493 4053.49 104.074 4006.67 103.061 3960.46Z" fill="url(#LinearGradient_4)" fill-rule="nonzero" opacity="1" stroke="none"/>
<path d="M712.958 1427.22C694.701 1406.82 661.355 1410.71 638.217 1418.8C603.314 1430.87 554.721 1459.64 573.282 1504.04C575.604 1509.48 578.813 1514.75 582.676 1519.14C592.907 1531.09 608.036 1538.07 623.441 1540.09C636.588 1541.93 651.354 1540.83 663.355 1534.39C670.197 1530.76 675.5 1525.04 677.54 1517.41C678.534 1513.69 678.85 1509.37 678.668 1505.34C678.33 1501.88 675.76 1496.59 678.464 1493.53C682.97 1488.44 691.978 1490.85 697.958 1488.88C706.015 1486.2 713.68 1480.28 718.175 1472.88C727.111 1458.28 724.508 1439.74 712.958 1427.22Z" fill="url(#LinearGradient_5)" fill-rule="nonzero" opacity="1" stroke="none"/>
<path d="M714.063 2962.06C713.049 2960.84 712.036 2959.83 711.023 2958.81C709.198 2957.19 707.374 2955.57 706.361 2953.34C704.536 2949.08 706.766 2944.42 705.955 2939.96C705.145 2935.1 702.308 2930.24 698.861 2926.58C682.039 2909.76 654.069 2917.47 635.828 2927.6C621.437 2935.5 613.533 2948.48 616.573 2964.9C619.208 2978.67 628.328 2992.45 640.692 2999.35C641.3 2999.76 641.909 2999.95 642.516 3000.37C645.962 3002.18 649.61 3003.81 652.448 3006.64C655.69 3010.09 658.122 3014.75 661.771 3018C664.811 3020.83 669.067 3022.86 672.918 3023.87C682.647 3026.31 692.781 3023.06 701.293 3018.81C712.441 3013.33 720.953 3002.79 722.778 2990.43C724.196 2980.3 720.549 2969.76 714.063 2962.06Z" fill="url(#LinearGradient_6)" fill-rule="nonzero" opacity="1" stroke="none"/>
<path d="M1241.44 9.93136C1241.24 9.32329 1240.84 8.91794 1240.43 8.51258C1239.82 7.49918 1239.01 6.48579 1238.2 5.67506C1234.96 2.22949 1230.09 0.20268 1225.43 0C1225.43 0 1225.43 0 1225.23 0C1225.03 0 1225.03 0 1224.82 0L1224.62 0C1223 0 1221.17 0.202674 1219.75 0.405355C1216.31 1.21608 1212.86 3.04021 1210.43 5.47237C1205.98 10.134 1203.94 16.6198 1205.37 22.9029C1205.77 25.1324 1206.79 27.1592 1208 28.9833C1208 28.9833 1208 28.9833 1208 29.186C1211.85 36.4825 1220.77 40.5362 1228.88 38.5093C1237.19 36.4825 1243.47 29.186 1243.67 20.4707C1244.08 16.8225 1243.26 12.9715 1241.44 9.93136Z" fill="url(#LinearGradient_7)" fill-rule="nonzero" opacity="1" stroke="none"/>
<path d="M672.754 91.039C663.227 93.4711 666.875 108.267 676.401 105.834C685.927 103.605 682.279 88.8092 672.754 91.039Z" fill="url(#LinearGradient_8)" fill-rule="nonzero" opacity="1" stroke="none"/>
<path d="M1319.67 531.888C1324.82 531.888 1328.99 527.713 1328.99 522.564C1328.99 517.416 1324.82 513.241 1319.67 513.241C1314.53 513.241 1310.35 517.416 1310.35 522.564C1310.35 527.713 1314.53 531.888 1319.67 531.888Z" fill="none" opacity="1" stroke="#1a1c4b" stroke-linecap="butt" stroke-linejoin="miter" stroke-width="1"/>
</g>
</svg>
