<svg width="141" height="48" viewBox="0 0 141 48" fill="none" xmlns="http://www.w3.org/2000/svg">
<g clip-path="url(#clip0_202_432)">
<mask id="mask0_202_432" style="mask-type:alpha" maskUnits="userSpaceOnUse" x="2" y="2" width="47" height="44">
<path d="M46.7807 28H29.7695V44H46.7807V28ZM13.8215 4L23.3903 20H4.25269L13.8215 4ZM38.2751 20C40.5309 20 42.6943 19.1571 44.2894 17.6569C45.8845 16.1566 46.7807 14.1217 46.7807 12C46.7807 9.87827 45.8845 7.84344 44.2894 6.34315C42.6943 4.84285 40.5309 4 38.2751 4C36.0192 4 33.8558 4.84285 32.2607 6.34315C30.6656 7.84344 29.7695 9.87827 29.7695 12C29.7695 14.1217 30.6656 16.1566 32.2607 17.6569C33.8558 19.1571 36.0192 20 38.2751 20Z" fill="white" stroke="white" stroke-width="4" stroke-linejoin="round"/>
<path d="M4.25269 28L21.2639 44M21.2639 28L4.25269 44" stroke="white" stroke-width="4" stroke-linecap="round" stroke-linejoin="round"/>
</mask>
<g mask="url(#mask0_202_432)">
<path d="M0 0H51.0336V48H0V0Z" fill="white"/>
</g>
<g clip-path="url(#clip1_202_432)">
<mask id="mask1_202_432" style="mask-type:alpha" maskUnits="userSpaceOnUse" x="2" y="2" width="47" height="44">
<path d="M46.7809 28H29.7697V44H46.7809V28ZM13.8217 4L23.3905 20H4.25293L13.8217 4ZM38.2753 20C40.5311 20 42.6946 19.1571 44.2897 17.6569C45.8848 16.1566 46.7809 14.1217 46.7809 12C46.7809 9.87827 45.8848 7.84344 44.2897 6.34315C42.6946 4.84285 40.5311 4 38.2753 4C36.0195 4 33.8561 4.84285 32.2609 6.34315C30.6658 7.84344 29.7697 9.87827 29.7697 12C29.7697 14.1217 30.6658 16.1566 32.2609 17.6569C33.8561 19.1571 36.0195 20 38.2753 20Z" fill="white" stroke="white" stroke-width="4" stroke-linejoin="round"/>
</mask>
<g mask="url(#mask1_202_432)">
<path d="M0 0H51.0336V48H0V0Z" fill="#0897AB"/>
</g>
</g>
</g>
<path d="M67.0823 25.16C66.2716 25.16 65.5143 25.0107 64.8103 24.712C64.1063 24.4133 63.4876 24.0027 62.9543 23.48C62.421 22.9467 61.9996 22.3333 61.6903 21.64C61.3916 20.9467 61.2423 20.2 61.2423 19.4C61.2423 18.6 61.3916 17.8533 61.6903 17.16C61.9996 16.4667 62.421 15.8587 62.9543 15.336C63.4876 14.8027 64.1063 14.3867 64.8103 14.088C65.5143 13.7893 66.2716 13.64 67.0823 13.64C67.5836 13.64 68.069 13.6933 68.5383 13.8C69.0076 13.9067 69.4396 14.0667 69.8343 14.28C69.9943 14.3653 70.1116 14.4827 70.1863 14.632C70.2716 14.7707 70.3143 14.9147 70.3143 15.064C70.3143 15.32 70.229 15.5493 70.0583 15.752C69.8876 15.9547 69.669 16.056 69.4023 16.056C69.317 16.056 69.2263 16.0453 69.1303 16.024C69.045 16.0027 68.9596 15.9707 68.8743 15.928C68.6076 15.8107 68.325 15.72 68.0263 15.656C67.7276 15.592 67.413 15.56 67.0823 15.56C66.389 15.56 65.7543 15.736 65.1783 16.088C64.613 16.4293 64.1596 16.8933 63.8183 17.48C63.4876 18.056 63.3223 18.696 63.3223 19.4C63.3223 20.0933 63.4876 20.7333 63.8183 21.32C64.1596 21.9067 64.613 22.376 65.1783 22.728C65.7543 23.0693 66.389 23.24 67.0823 23.24C67.4023 23.24 67.7543 23.208 68.1383 23.144C68.5223 23.08 68.837 22.9947 69.0823 22.888L68.9383 23.368V20.632L69.2103 20.872H67.4343C67.157 20.872 66.9223 20.7813 66.7303 20.6C66.549 20.4187 66.4583 20.1893 66.4583 19.912C66.4583 19.6347 66.549 19.4053 66.7303 19.224C66.9223 19.0427 67.157 18.952 67.4343 18.952H70.0583C70.3356 18.952 70.565 19.048 70.7463 19.24C70.9276 19.4213 71.0183 19.6507 71.0183 19.928V23.32C71.0183 23.5333 70.965 23.7093 70.8583 23.848C70.7623 23.9867 70.6503 24.0987 70.5223 24.184C70.0316 24.4827 69.493 24.7227 68.9063 24.904C68.3303 25.0747 67.7223 25.16 67.0823 25.16ZM77.0549 16.312L73.5989 24.44C73.5243 24.6427 73.4069 24.8027 73.2469 24.92C73.0976 25.0267 72.9323 25.08 72.7509 25.08C72.4629 25.08 72.2496 25 72.1109 24.84C71.9723 24.68 71.9029 24.4827 71.9029 24.248C71.9029 24.152 71.9189 24.0507 71.9509 23.944L75.9349 14.376C76.0203 14.1627 76.1483 13.9973 76.3189 13.88C76.5003 13.7627 76.6923 13.7147 76.8949 13.736C77.0869 13.736 77.2629 13.7947 77.4229 13.912C77.5936 14.0187 77.7163 14.1733 77.7909 14.376L81.7269 23.752C81.7803 23.8907 81.8069 24.0187 81.8069 24.136C81.8069 24.424 81.7109 24.6533 81.5189 24.824C81.3376 24.9947 81.1349 25.08 80.9109 25.08C80.7189 25.08 80.5429 25.0213 80.3829 24.904C80.2336 24.7867 80.1163 24.6267 80.0309 24.424L76.5909 16.408L77.0549 16.312ZM74.0949 22.488L74.9749 20.648H79.2949L79.5989 22.488H74.0949ZM84.1697 13.784C84.319 13.784 84.4737 13.8267 84.6337 13.912C84.8043 13.9867 84.9323 14.088 85.0177 14.216L88.9057 20.2L88.1057 20.168L92.0897 14.216C92.2923 13.928 92.5537 13.784 92.8737 13.784C93.1297 13.784 93.359 13.8747 93.5617 14.056C93.7643 14.2373 93.8657 14.472 93.8657 14.76V24.024C93.8657 24.3013 93.775 24.536 93.5937 24.728C93.4123 24.9093 93.1723 25 92.8737 25C92.575 25 92.3297 24.9093 92.1377 24.728C91.9563 24.536 91.8657 24.3013 91.8657 24.024V16.488L92.4897 16.632L89.2257 21.608C89.1297 21.7253 89.007 21.8267 88.8577 21.912C88.719 21.9973 88.575 22.0347 88.4257 22.024C88.287 22.0347 88.143 21.9973 87.9937 21.912C87.855 21.8267 87.7377 21.7253 87.6417 21.608L84.5857 16.776L85.0017 15.928V24.024C85.0017 24.3013 84.9163 24.536 84.7457 24.728C84.575 24.9093 84.351 25 84.0737 25C83.807 25 83.5883 24.9093 83.4177 24.728C83.247 24.536 83.1617 24.3013 83.1617 24.024V14.76C83.1617 14.4933 83.2577 14.264 83.4497 14.072C83.6523 13.88 83.8923 13.784 84.1697 13.784ZM97.247 13.8H102.607C102.884 13.8 103.114 13.8907 103.295 14.072C103.487 14.2427 103.583 14.4667 103.583 14.744C103.583 15.0107 103.487 15.2293 103.295 15.4C103.114 15.56 102.884 15.64 102.607 15.64H98.127L98.271 15.368V18.488L98.143 18.36H101.887C102.164 18.36 102.394 18.4507 102.575 18.632C102.767 18.8027 102.863 19.0267 102.863 19.304C102.863 19.5707 102.767 19.7893 102.575 19.96C102.394 20.12 102.164 20.2 101.887 20.2H98.191L98.271 20.072V23.304L98.143 23.16H102.607C102.884 23.16 103.114 23.256 103.295 23.448C103.487 23.6293 103.583 23.8427 103.583 24.088C103.583 24.3547 103.487 24.5733 103.295 24.744C103.114 24.9147 102.884 25 102.607 25H97.247C96.9697 25 96.735 24.9093 96.543 24.728C96.3617 24.536 96.271 24.3013 96.271 24.024V14.776C96.271 14.4987 96.3617 14.2693 96.543 14.088C96.735 13.896 96.9697 13.8 97.247 13.8Z" fill="#0897AB"/>
<path d="M89.8557 41.16C89.109 41.16 88.437 41.0693 87.8397 40.888C87.2423 40.696 86.6717 40.3653 86.1277 39.896C85.989 39.7787 85.8823 39.6453 85.8077 39.496C85.733 39.3467 85.6957 39.1973 85.6957 39.048C85.6957 38.8027 85.781 38.5893 85.9517 38.408C86.133 38.216 86.357 38.12 86.6237 38.12C86.8263 38.12 87.0077 38.184 87.1677 38.312C87.573 38.6427 87.973 38.8933 88.3677 39.064C88.773 39.2347 89.269 39.32 89.8557 39.32C90.2503 39.32 90.613 39.2613 90.9437 39.144C91.2743 39.016 91.541 38.8507 91.7437 38.648C91.9463 38.4347 92.0477 38.1947 92.0477 37.928C92.0477 37.608 91.9517 37.336 91.7597 37.112C91.5677 36.888 91.2743 36.7013 90.8797 36.552C90.485 36.392 89.9837 36.2693 89.3757 36.184C88.7997 36.0987 88.293 35.9707 87.8557 35.8C87.4183 35.6187 87.0503 35.3947 86.7517 35.128C86.4637 34.8507 86.245 34.5307 86.0957 34.168C85.9463 33.7947 85.8717 33.3787 85.8717 32.92C85.8717 32.2267 86.0477 31.6347 86.3997 31.144C86.7623 30.6533 87.2477 30.28 87.8557 30.024C88.4637 29.768 89.1357 29.64 89.8717 29.64C90.565 29.64 91.205 29.7467 91.7917 29.96C92.389 30.1627 92.8743 30.424 93.2477 30.744C93.557 30.9893 93.7117 31.272 93.7117 31.592C93.7117 31.8267 93.621 32.04 93.4397 32.232C93.2583 32.424 93.045 32.52 92.7997 32.52C92.6397 32.52 92.4957 32.472 92.3677 32.376C92.197 32.2267 91.9677 32.088 91.6797 31.96C91.3917 31.8213 91.0877 31.7093 90.7677 31.624C90.4477 31.528 90.149 31.48 89.8717 31.48C89.413 31.48 89.0237 31.5387 88.7037 31.656C88.3943 31.7733 88.1597 31.9333 87.9997 32.136C87.8397 32.3387 87.7597 32.5733 87.7597 32.84C87.7597 33.16 87.8503 33.4267 88.0317 33.64C88.2237 33.8427 88.4957 34.008 88.8477 34.136C89.1997 34.2533 89.621 34.36 90.1117 34.456C90.7517 34.5733 91.3117 34.712 91.7917 34.872C92.2823 35.032 92.6877 35.24 93.0077 35.496C93.3277 35.7413 93.5677 36.056 93.7277 36.44C93.8877 36.8133 93.9677 37.272 93.9677 37.816C93.9677 38.5093 93.7757 39.1067 93.3917 39.608C93.0077 40.1093 92.501 40.4933 91.8717 40.76C91.253 41.0267 90.581 41.16 89.8557 41.16ZM99.5945 41C99.2959 41 99.0505 40.9093 98.8585 40.728C98.6665 40.536 98.5705 40.3013 98.5705 40.024V30.744H100.651V40.024C100.651 40.3013 100.549 40.536 100.347 40.728C100.155 40.9093 99.9039 41 99.5945 41ZM96.0585 31.64C95.7812 31.64 95.5465 31.5547 95.3545 31.384C95.1732 31.2133 95.0825 30.9893 95.0825 30.712C95.0825 30.4347 95.1732 30.216 95.3545 30.056C95.5465 29.8853 95.7812 29.8 96.0585 29.8H103.163C103.44 29.8 103.669 29.8853 103.851 30.056C104.043 30.2267 104.139 30.4507 104.139 30.728C104.139 31.0053 104.043 31.2293 103.851 31.4C103.669 31.56 103.44 31.64 103.163 31.64H96.0585ZM115.81 35.4C115.81 36.2 115.676 36.9467 115.41 37.64C115.143 38.3333 114.764 38.9467 114.274 39.48C113.794 40.0027 113.218 40.4133 112.546 40.712C111.884 41.0107 111.159 41.16 110.37 41.16C109.58 41.16 108.855 41.0107 108.194 40.712C107.532 40.4133 106.956 40.0027 106.466 39.48C105.986 38.9467 105.612 38.3333 105.346 37.64C105.079 36.9467 104.946 36.2 104.946 35.4C104.946 34.6 105.079 33.8533 105.346 33.16C105.612 32.4667 105.986 31.8587 106.466 31.336C106.956 30.8027 107.532 30.3867 108.194 30.088C108.855 29.7893 109.58 29.64 110.37 29.64C111.159 29.64 111.884 29.7893 112.546 30.088C113.218 30.3867 113.794 30.8027 114.274 31.336C114.764 31.8587 115.143 32.4667 115.41 33.16C115.676 33.8533 115.81 34.6 115.81 35.4ZM113.73 35.4C113.73 34.6853 113.586 34.04 113.298 33.464C113.01 32.8773 112.615 32.4133 112.114 32.072C111.612 31.7307 111.031 31.56 110.37 31.56C109.708 31.56 109.127 31.7307 108.626 32.072C108.124 32.4133 107.73 32.872 107.442 33.448C107.164 34.024 107.026 34.6747 107.026 35.4C107.026 36.1147 107.164 36.7653 107.442 37.352C107.73 37.928 108.124 38.3867 108.626 38.728C109.127 39.0693 109.708 39.24 110.37 39.24C111.031 39.24 111.612 39.0693 112.114 38.728C112.615 38.3867 113.01 37.928 113.298 37.352C113.586 36.7653 113.73 36.1147 113.73 35.4ZM118.798 41C118.5 41 118.233 40.9093 117.998 40.728C117.764 40.536 117.646 40.3013 117.646 40.024V30.776C117.646 30.4987 117.737 30.2693 117.918 30.088C118.11 29.896 118.345 29.8 118.622 29.8H123.23C123.785 29.8 124.302 29.9493 124.782 30.248C125.273 30.536 125.668 30.9413 125.966 31.464C126.265 31.976 126.414 32.568 126.414 33.24C126.414 33.6453 126.329 34.04 126.158 34.424C125.998 34.808 125.774 35.1547 125.486 35.464C125.209 35.7733 124.894 36.0133 124.542 36.184L124.558 35.816C124.857 35.976 125.102 36.168 125.294 36.392C125.497 36.6053 125.652 36.84 125.758 37.096C125.876 37.3413 125.945 37.608 125.966 37.896C126.009 38.1627 126.036 38.3973 126.046 38.6C126.068 38.8027 126.1 38.9733 126.142 39.112C126.196 39.2507 126.292 39.3573 126.43 39.432C126.665 39.5707 126.809 39.7733 126.862 40.04C126.926 40.296 126.868 40.5253 126.686 40.728C126.569 40.8667 126.42 40.9573 126.238 41C126.057 41.032 125.876 41.032 125.694 41C125.513 40.9573 125.364 40.904 125.246 40.84C125.065 40.7333 124.884 40.5787 124.702 40.376C124.521 40.1627 124.372 39.88 124.254 39.528C124.148 39.176 124.094 38.7227 124.094 38.168C124.094 37.9867 124.062 37.8213 123.998 37.672C123.934 37.512 123.844 37.3787 123.726 37.272C123.609 37.1547 123.46 37.0693 123.278 37.016C123.097 36.952 122.884 36.92 122.638 36.92H119.406L119.646 36.552V40.024C119.646 40.3013 119.572 40.536 119.422 40.728C119.273 40.9093 119.065 41 118.798 41ZM119.422 35.272H123.15C123.342 35.272 123.529 35.1867 123.71 35.016C123.892 34.8347 124.041 34.5947 124.158 34.296C124.276 33.9867 124.334 33.6507 124.334 33.288C124.334 32.8187 124.206 32.4293 123.95 32.12C123.705 31.8 123.438 31.64 123.15 31.64H119.454L119.646 31.128V35.656L119.422 35.272ZM129.607 29.8H134.967C135.244 29.8 135.473 29.8907 135.655 30.072C135.847 30.2427 135.943 30.4667 135.943 30.744C135.943 31.0107 135.847 31.2293 135.655 31.4C135.473 31.56 135.244 31.64 134.967 31.64H130.487L130.631 31.368V34.488L130.503 34.36H134.247C134.524 34.36 134.753 34.4507 134.935 34.632C135.127 34.8027 135.223 35.0267 135.223 35.304C135.223 35.5707 135.127 35.7893 134.935 35.96C134.753 36.12 134.524 36.2 134.247 36.2H130.551L130.631 36.072V39.304L130.503 39.16H134.967C135.244 39.16 135.473 39.256 135.655 39.448C135.847 39.6293 135.943 39.8427 135.943 40.088C135.943 40.3547 135.847 40.5733 135.655 40.744C135.473 40.9147 135.244 41 134.967 41H129.607C129.329 41 129.095 40.9093 128.903 40.728C128.721 40.536 128.631 40.3013 128.631 40.024V30.776C128.631 30.4987 128.721 30.2693 128.903 30.088C129.095 29.896 129.329 29.8 129.607 29.8Z" fill="white"/>
<defs>
<clipPath id="clip0_202_432">
<rect width="51.0336" height="48" fill="white"/>
</clipPath>
<clipPath id="clip1_202_432">
<rect width="24.4536" height="48" fill="white" transform="translate(26.5801)"/>
</clipPath>
</defs>
</svg>
